<svg width="124" height="37" viewBox="0 0 124 37" fill="none" xmlns="http://www.w3.org/2000/svg">
<path d="M12.4079 18.5038C14.6639 18.5038 16.3119 17.9598 17.3519 16.8718C18.4079 15.7838 18.9359 14.2958 18.9359 12.4078C18.9359 11.5438 18.7999 10.7598 18.528 10.0558C18.2719 9.33582 17.8719 8.72782 17.3279 8.23182C16.7999 7.71982 16.1279 7.32782 15.3119 7.05582C14.4959 6.78382 13.5279 6.64782 12.4079 6.64782H7.84795V18.5038H12.4079ZM12.4079 1.17582C14.7919 1.17582 16.8479 1.45582 18.576 2.01582C20.32 2.57582 21.7519 3.35982 22.872 4.36782C23.9919 5.35982 24.816 6.54382 25.344 7.91982C25.888 9.29582 26.16 10.7918 26.16 12.4078C26.16 14.1198 25.8799 15.6878 25.32 17.1118C24.76 18.5358 23.912 19.7598 22.7759 20.7838C21.6399 21.8078 20.208 22.6078 18.4799 23.1838C16.7519 23.7438 14.728 24.0238 12.4079 24.0238H7.84795V35.9998H0.647949V1.17582H12.4079Z" fill="#007537"/>
<path d="M34.9548 0.21582V35.9998H28.3308V0.21582H34.9548Z" fill="#007537"/>
<path d="M51.9063 25.6558C50.2903 25.7358 48.9463 25.8798 47.8743 26.0878C46.8023 26.2798 45.9463 26.5358 45.3063 26.8558C44.6823 27.1758 44.2343 27.5438 43.9623 27.9598C43.7063 28.3598 43.5783 28.7998 43.5783 29.2798C43.5783 30.2398 43.8423 30.9198 44.3703 31.3198C44.9143 31.7198 45.6663 31.9198 46.6263 31.9198C47.7303 31.9198 48.6823 31.7278 49.4823 31.3438C50.2983 30.9438 51.1063 30.3278 51.9063 29.4958V25.6558ZM38.4183 14.6878C39.8743 13.3758 41.4823 12.3998 43.2423 11.7598C45.0023 11.1038 46.9063 10.7758 48.9543 10.7758C50.4263 10.7758 51.7383 11.0158 52.8903 11.4958C54.0583 11.9758 55.0423 12.6478 55.8423 13.5118C56.6583 14.3598 57.2823 15.3758 57.7143 16.5598C58.1463 17.7438 58.3623 19.0398 58.3623 20.4478V35.9998H55.3383C54.7143 35.9998 54.2343 35.9118 53.8983 35.7358C53.5783 35.5598 53.3143 35.1918 53.1063 34.6318L52.5783 33.0478C51.9543 33.5918 51.3463 34.0718 50.7543 34.4878C50.1783 34.9038 49.5783 35.2558 48.9543 35.5438C48.3303 35.8158 47.6583 36.0238 46.9383 36.1678C46.2343 36.3118 45.4423 36.3838 44.5623 36.3838C43.4743 36.3838 42.4823 36.2398 41.5863 35.9518C40.6903 35.6638 39.9143 35.2398 39.2583 34.6798C38.6183 34.1038 38.1223 33.3918 37.7703 32.5438C37.4183 31.6958 37.2423 30.7198 37.2423 29.6158C37.2423 28.7038 37.4743 27.7918 37.9383 26.8798C38.4023 25.9678 39.1943 25.1438 40.3143 24.4078C41.4503 23.6558 42.9543 23.0398 44.8263 22.5598C46.7143 22.0638 49.0743 21.7838 51.9063 21.7198V20.4478C51.9063 18.8958 51.5783 17.7598 50.9223 17.0398C50.2663 16.3038 49.3223 15.9358 48.0903 15.9358C47.1783 15.9358 46.4183 16.0478 45.8103 16.2718C45.2023 16.4798 44.6663 16.7118 44.2023 16.9678C43.7543 17.2078 43.3303 17.4398 42.9303 17.6638C42.5303 17.8718 42.0663 17.9758 41.5383 17.9758C41.0743 17.9758 40.6823 17.8638 40.3623 17.6398C40.0583 17.3998 39.8023 17.1198 39.5943 16.7998L38.4183 14.6878Z" fill="#007537"/>
<path d="M68.1768 14.1358C68.6728 13.6558 69.1848 13.2158 69.7128 12.8158C70.2568 12.4158 70.8248 12.0718 71.4168 11.7838C72.0248 11.4958 72.6728 11.2718 73.3608 11.1118C74.0648 10.9518 74.8248 10.8718 75.6408 10.8718C76.9848 10.8718 78.1768 11.1038 79.2168 11.5678C80.2568 12.0318 81.1288 12.6798 81.8328 13.5118C82.5528 14.3438 83.0888 15.3358 83.4408 16.4878C83.8088 17.6398 83.9928 18.9038 83.9928 20.2798V35.9998H77.3928V20.2798C77.3928 18.9038 77.0728 17.8398 76.4328 17.0878C75.7928 16.3198 74.8488 15.9358 73.6008 15.9358C72.6728 15.9358 71.8008 16.1358 70.9848 16.5358C70.1688 16.9358 69.3928 17.4958 68.6568 18.2158V35.9998H62.0328V11.2558H66.1128C66.9448 11.2558 67.4968 11.6398 67.7688 12.4078L68.1768 14.1358Z" fill="#007537"/>
<path d="M95.9831 36.3838C94.8631 36.3838 93.8711 36.2238 93.0071 35.9038C92.1431 35.5678 91.4151 35.0958 90.8231 34.4878C90.2311 33.8798 89.7831 33.1438 89.4791 32.2798C89.1751 31.4158 89.0231 30.4398 89.0231 29.3518V16.0078H86.6951C86.3431 16.0078 86.0391 15.8958 85.7831 15.6718C85.5431 15.4478 85.4231 15.1118 85.4231 14.6638V12.0718L89.3831 11.3518L90.7271 4.94382C90.9031 4.22382 91.3911 3.86382 92.1911 3.86382H95.6471V11.3998H102.031V16.0078H95.6471V28.9198C95.6471 29.6078 95.8071 30.1518 96.1271 30.5518C96.4631 30.9518 96.9351 31.1518 97.5431 31.1518C97.8631 31.1518 98.1351 31.1198 98.3591 31.0558C98.5831 30.9758 98.7751 30.8958 98.9351 30.8158C99.0951 30.7198 99.2391 30.6398 99.3671 30.5758C99.5111 30.4958 99.6551 30.4558 99.7991 30.4558C99.9911 30.4558 100.151 30.5038 100.279 30.5998C100.407 30.6798 100.535 30.8238 100.663 31.0318L102.655 34.1998C101.743 34.9198 100.711 35.4638 99.5591 35.8318C98.4071 36.1998 97.2151 36.3838 95.9831 36.3838Z" fill="#007537"/>
<path d="M117.016 25.6558C115.4 25.7358 114.056 25.8798 112.984 26.0878C111.912 26.2798 111.056 26.5358 110.416 26.8558C109.792 27.1758 109.344 27.5438 109.072 27.9598C108.816 28.3598 108.688 28.7998 108.688 29.2798C108.688 30.2398 108.952 30.9198 109.48 31.3198C110.024 31.7198 110.776 31.9198 111.736 31.9198C112.84 31.9198 113.792 31.7278 114.592 31.3438C115.408 30.9438 116.216 30.3278 117.016 29.4958V25.6558ZM103.528 14.6878C104.984 13.3758 106.592 12.3998 108.352 11.7598C110.112 11.1038 112.016 10.7758 114.064 10.7758C115.536 10.7758 116.848 11.0158 118 11.4958C119.168 11.9758 120.152 12.6478 120.952 13.5118C121.768 14.3598 122.392 15.3758 122.824 16.5598C123.256 17.7438 123.472 19.0398 123.472 20.4478V35.9998H120.448C119.824 35.9998 119.344 35.9118 119.008 35.7358C118.688 35.5598 118.424 35.1918 118.216 34.6318L117.688 33.0478C117.064 33.5918 116.456 34.0718 115.864 34.4878C115.288 34.9038 114.688 35.2558 114.064 35.5438C113.44 35.8158 112.768 36.0238 112.048 36.1678C111.344 36.3118 110.552 36.3838 109.672 36.3838C108.584 36.3838 107.592 36.2398 106.696 35.9518C105.8 35.6638 105.024 35.2398 104.368 34.6798C103.728 34.1038 103.232 33.3918 102.88 32.5438C102.528 31.6958 102.352 30.7198 102.352 29.6158C102.352 28.7038 102.584 27.7918 103.048 26.8798C103.512 25.9678 104.304 25.1438 105.424 24.4078C106.56 23.6558 108.064 23.0398 109.936 22.5598C111.824 22.0638 114.184 21.7838 117.016 21.7198V20.4478C117.016 18.8958 116.688 17.7598 116.032 17.0398C115.376 16.3038 114.432 15.9358 113.2 15.9358C112.288 15.9358 111.528 16.0478 110.92 16.2718C110.312 16.4798 109.776 16.7118 109.312 16.9678C108.864 17.2078 108.44 17.4398 108.04 17.6638C107.64 17.8718 107.176 17.9758 106.648 17.9758C106.184 17.9758 105.792 17.8638 105.472 17.6398C105.168 17.3998 104.912 17.1198 104.704 16.7998L103.528 14.6878Z" fill="#007537"/>
</svg>
